
<svg width="200px" height="32px" viewBox="0 0 200 42" version="1.1" xmlns="http://www.w3.org/2000/svg" xmlns:xlink="http://www.w3.org/1999/xlink">
    <!-- Generator: Sketch 51.2 (57519) - http://www.bohemiancoding.com/sketch -->
    <desc>Created with Sketch.</desc>
    <defs></defs>
    <g id="Roman" stroke="none" stroke-width="1" fill="none" fill-rule="evenodd">
        <g id="Concept-F" transform="translate(-117.000000, -29.000000)">
            <g id="header">
                <g id="header__logo" transform="translate(117.000000, 29.000000)">
                    <path d="
                     M198.3049257,17.3307372 C198.3049257,17.8426806 197.9113214,18.2579768 197.4261149,18.2579768 L194.610426,18.2579768 L194.610426,28.0119064 C194.610426,28.9618956 195.3406117,29.7322868 196.2410619,29.7322868 L197.4135406,29.7322868 C197.8991126,29.7322868 198.2923514,30.1471188 198.2923514,30.6594491 L198.2923514,34.5995404 C198.2923514,35.1114838 197.8991126,35.5263158 197.4135406,35.5263158 L196.2410619,35.5263158 C192.3073585,35.5263158 189.1186082,32.1620833 189.1186082,28.0119064 L189.1186082,18.2579768 L188.1253861,18.2579768 C187.6401796,18.2579768 187.2465753,17.8426806 187.2465753,17.3307372 L187.2465753,13.3906458 C187.2465753,12.8787024 187.6401796,12.4634836 188.1253861,12.4634836 L189.1186082,12.4634836 L189.1186082,11.032348 C189.1186082,10.520482 189.5118469,10.1055727 189.9970534,10.1055727 L193.7316153,10.1055727 C194.2171873,10.1055727 194.610426,10.520482 194.610426,11.032348 L194.610426,12.4634836 L197.4261149,12.4634836 C197.9113214,12.4634836 198.3049257,12.8787024 198.3049257,13.3906458 L198.3049257,17.3307372 Z
                     M173.9638347,26.8909856 L173.9638347,27.0805656 C173.9638347,28.7073167 175.2138792,30.0260971 176.7557641,30.0260971 C178.2980144,30.0260971 179.5480589,28.7073167 179.5480589,27.0805656 L179.5480589,24.9875251 C179.5480589,24.7919095 179.3622227,24.6564178 179.1887415,24.7252856 L178.2269551,25.1066896 C177.313492,25.4690583 176.379486,25.769678 175.4299814,26.0072333 L174.4404146,26.2550028 C174.1611486,26.3250313 173.9638347,26.5880445 173.9638347,26.8909856 Z 
                    M168.4182837,28.1078571 L168.4182837,26.1925574 C168.4182837,24.9182703 168.8244623,22.5698771 171.5442357,21.1566937 C172.833977,20.4864317 174.350567,20.1724253 175.8178103,19.8687104 C177.1020686,19.6026794 178.4264622,19.3214045 179.2233208,18.8753112 C179.8453091,18.5270257 179.8005681,17.4673895 179.8005681,17.4673895 C179.8005681,16.6015119 179.1353008,15.899679 178.3146095,15.899679 L175.4649262,15.899679 C174.6446005,15.899679 173.9793333,16.6015119 173.9793333,17.4673895 C173.9793333,18.3427849 173.306536,19.0526652 172.4764141,19.0526652 L169.9900691,19.0526652 C169.1599471,19.0526652 168.4871499,18.3427849 168.4871499,17.4673895 C168.4871499,13.4013242 171.6113473,10.1055727 175.4649262,10.1055727 L178.3146095,10.1055727 C182.168554,10.1055727 185.2927514,13.4013242 185.2927514,17.4673895 L185.2927514,28.1078571 C185.2927514,32.1739224 182.1681885,35.4699834 178.3146095,35.4699834 L175.3964256,35.4699834 C171.5424081,35.4699834 168.4182837,32.1739224 168.4182837,28.1078571 Z 
                    
                    M160.17596,35.4698287 L158.561919,35.4698287 C154.025747,35.4698287 150.3485004,31.5902482 150.3485004,26.8044752 L150.3485004,18.7708488 C150.3485004,13.9849985 154.025747,10.1054179 158.561919,10.1054179 L160.244534,10.1054179 C164.098478,10.1054179 167.222676,13.4015563 167.222676,17.4676217 C167.222676,18.1363361 166.708958,18.6783801 166.075053,18.6783801 L162.878407,18.6783801 C162.244576,18.6783801 161.730858,18.1363361 161.730858,17.4676217 C161.730858,16.6017441 161.065225,15.8995243 160.244534,15.8995243 L158.561919,15.8995243 C157.059,15.8995243 155.840391,17.1851862 155.840391,18.7708488 L155.840391,26.8044752 C155.840391,28.3900604 157.058635,29.6757997 158.561919,29.6757997 L160.17596,29.6757997 C160.996651,29.6757997 161.661919,28.9739668 161.661919,28.1080118 C161.661919,27.2322296 162.334716,26.5224266 163.164472,26.5224266 L165.651183,26.5224266 C166.480939,26.5224266 167.153736,27.2322296 167.153736,28.1080118 C167.153736,32.1737676 164.029612,35.4698287 160.17596,35.4698287 Z
                    M134.616438,19.8955632 C134.504009,21.2182509 133.898866,23.1784596 131.512199,24.4186303 C130.222531,25.0888923 128.705868,25.4028987 127.238697,25.7066136 C125.954366,25.9726446 124.630046,26.2543063 123.833114,26.7000128 C123.169674,27.0711253 123.255867,28.1079344 123.255867,28.1079344 C123.255867,28.9738121 123.921134,29.6756449 124.741825,29.6756449 L127.591508,29.6756449 C128.411834,29.6756449 129.077101,28.9738121 129.077101,28.1079344 C129.077101,27.2324617 129.749899,26.5226588 130.580021,26.5226588 L133.066366,26.5226588 C133.896488,26.5226588 134.569285,27.2324617 134.569285,28.1079344 C134.569285,32.1739998 131.445087,35.4697513 127.591508,35.4697513 L124.741825,35.4697513 C120.887881,35.4697513 117.763683,32.1739998 117.763683,28.1079344 L117.763683,17.4674669 C117.763683,13.4014016 120.888246,10.1052632 124.741825,10.1052632 L127.660009,10.1052632 C131.327054,10.1052632 134.333374,13.0893441 134.616438,16.8814129 L134.616438,19.8955632 Z 
                    M129.0926,18.6843384 L129.0926,18.4947584 C129.0926,16.8680072 127.842555,15.5492269 126.300671,15.5492269 C124.75842,15.5492269 123.508449,16.8680072 123.508449,18.4947584 L123.508449,20.5877215 C123.508449,20.7834145 123.694212,20.9189062 123.867766,20.849961 L124.829553,20.4686344 C125.742943,20.1062657 126.676949,19.8055686 127.626453,19.5680907 L128.61602,19.3203212 C128.895286,19.2502927 129.0926,18.9872795 129.0926,18.6843384 Z 
                    M109.17596,35.4698287 L107.561919,35.4698287 C103.025747,35.4698287 99.3485004,31.5902482 99.3485004,26.8044752 L99.3485004,18.7708488 C99.3485004,13.9849985 103.025747,10.1054179 107.561919,10.1054179 L109.244534,10.1054179 C113.098478,10.1054179 116.222676,13.4015563 116.222676,17.4676217 C116.222676,18.1363361 115.708958,18.6783801 115.075053,18.6783801 L111.878407,18.6783801 C111.244576,18.6783801 110.730858,18.1363361 110.730858,17.4676217 C110.730858,16.6017441 110.065225,15.8995243 109.244534,15.8995243 L107.561919,15.8995243 C106.059,15.8995243 104.840391,17.1851862 104.840391,18.7708488 L104.840391,26.8044752 C104.840391,28.3900604 106.058635,29.6757997 107.561919,29.6757997 L109.17596,29.6757997 C109.996651,29.6757997 110.661919,28.9739668 110.661919,28.1080118 C110.661919,27.2322296 111.334716,26.5224266 112.164472,26.5224266 L114.651183,26.5224266 C115.480939,26.5224266 116.153736,27.2322296 116.153736,28.1080118 C116.153736,32.1737676 113.029612,35.4698287 109.17596,35.4698287 Z 
                    M85.9638347,26.8909856 L85.9638347,27.0805656 C85.9638347,28.7073167 87.2138792,30.0260971 88.7557641,30.0260971 C90.2980144,30.0260971 91.5480589,28.7073167 91.5480589,27.0805656 L91.5480589,24.9875251 C91.5480589,24.7919095 91.3622227,24.6564178 91.1887415,24.7252856 L90.2269551,25.1066896 C89.313492,25.4690583 88.379486,25.769678 87.4299814,26.0072333 L86.4404146,26.2550028 C86.1611486,26.3250313 85.9638347,26.5880445 85.9638347,26.8909856 Z 
                    M80.4182837,28.1078571 L80.4182837,26.1925574 C80.4182837,24.9182703 80.8244623,22.5698771 83.5442357,21.1566937 C84.833977,20.4864317 86.350567,20.1724253 87.8178103,19.8687104 C89.1020686,19.6026794 90.4264622,19.3214045 91.2233208,18.8753112 C91.8453091,18.5270257 91.8005681,17.4673895 91.8005681,17.4673895 C91.8005681,16.6015119 91.1353008,15.899679 90.3146095,15.899679 L87.4649262,15.899679 C86.6446005,15.899679 85.9793333,16.6015119 85.9793333,17.4673895 C85.9793333,18.3427849 85.306536,19.0526652 84.4764141,19.0526652 L81.9900691,19.0526652 C81.1599471,19.0526652 80.4871499,18.3427849 80.4871499,17.4673895 C80.4871499,13.4013242 83.6113473,10.1055727 87.4649262,10.1055727 L90.3146095,10.1055727 C94.168554,10.1055727 97.2927514,13.4013242 97.2927514,17.4673895 L97.2927514,28.1078571 C97.2927514,32.1739224 94.1681885,35.4699834 90.3146095,35.4699834 L87.3964256,35.4699834 C83.5424081,35.4699834 80.4182837,32.1739224 80.4182837,28.1078571 Z 
                    M78.493395,10.2489571 C79.1207202,10.3136464 79.559431,10.9325284 79.4410719,11.5856121 L78.810457,15.0602652 C78.7108863,15.607958 78.2523636,15.991606 77.7238782,15.991606 C72.6415287,15.991606 72.7349585,25.2267828 72.7349585,25.2267828 L72.7349585,34.5426664 C72.7349585,35.0546098 72.3417198,35.4698287 71.8561478,35.4698287 L68.1218783,35.4698287 C67.6363063,35.4698287 67.2431407,35.0546098 67.2431407,34.5426664 L67.2431407,11.0325802 C67.2431407,10.5207142 67.6363063,10.1054179 68.1218783,10.1054179 L71.8561478,10.1054179 C72.3417198,10.1054179 72.7349585,10.5207142 72.7349585,11.0325802 L72.7349585,12.7362466 C73.7609323,11.406401 74.7184054,10.6375574 77.0615352,10.2744149 C77.5279533,10.2021424 78.0019745,10.1982734 78.4713901,10.2466357 L78.493395,10.2489571 Z 
                    M64.3049257,17.3307372 C64.3049257,17.8426806 63.9113214,18.2579768 63.4261149,18.2579768 L60.610426,18.2579768 L60.610426,28.0119064 C60.610426,28.9618956 61.3406117,29.7322868 62.2410619,29.7322868 L63.4135406,29.7322868 C63.8991126,29.7322868 64.2923514,30.1471188 64.2923514,30.6594491 L64.2923514,34.5995404 C64.2923514,35.1114838 63.8991126,35.5263158 63.4135406,35.5263158 L62.2410619,35.5263158 C58.3073585,35.5263158 55.1186082,32.1620833 55.1186082,28.0119064 L55.1186082,18.2579768 L54.1253861,18.2579768 C53.6401796,18.2579768 53.2465753,17.8426806 53.2465753,17.3307372 L53.2465753,13.3906458 C53.2465753,12.8787024 53.6401796,12.4634836 54.1253861,12.4634836 L55.1186082,12.4634836 L55.1186082,11.032348 C55.1186082,10.520482 55.5118469,10.1055727 55.9970534,10.1055727 L59.7316153,10.1055727 C60.2171873,10.1055727 60.610426,10.520482 60.610426,11.032348 L60.610426,12.4634836 L63.4261149,12.4634836 C63.9113214,12.4634836 64.3049257,12.8787024 64.3049257,13.3906458 L64.3049257,17.3307372 Z
                    " id="Clip-44" fill="#20a8d8"></path>
                    <ellipse xmlns="http://www.w3.org/2000/svg" ry="4" rx="4" id="svg_1" cx="143" cy="32"  stroke-linecap="null" stroke-linejoin="null" stroke-dasharray="null" stroke-width="5" stroke="null" fill="#20a8d8"/>
                </g>
            </g>
        </g>
    </g>
</svg>