<?xml version="1.0" encoding="UTF-8" standalone="no"?>
<!DOCTYPE svg PUBLIC "-//W3C//DTD SVG 1.1//EN" "http://www.w3.org/Graphics/SVG/1.1/DTD/svg11.dtd">
<svg width="100%" height="100%" viewBox="0 0 333 306" version="1.1" xmlns="http://www.w3.org/2000/svg" xmlns:xlink="http://www.w3.org/1999/xlink" xml:space="preserve" xmlns:serif="http://www.serif.com/" style="fill-rule:evenodd;clip-rule:evenodd;stroke-linejoin:round;stroke-miterlimit:2;">
    <g transform="matrix(1,0,0,1,-171.937,-201.281)">
        <g id="Background" transform="matrix(0.374409,0,0,0.216836,71.9534,163.001)">
            <path d="M535.445,204.016C535.445,188.849 528.314,176.536 519.531,176.536L282.959,176.536C274.175,176.536 267.044,188.849 267.044,204.016L267.044,417.457C267.044,432.624 274.175,444.937 282.959,444.937L519.531,444.937C528.314,444.937 535.445,432.624 535.445,417.457L535.445,204.016Z" style="fill:url(#_Linear1);"/>
        </g>
        <g id="Background1" serif:id="Background" transform="matrix(0.374409,0,0,0.216836,187.985,163.001)">
            <path d="M535.445,204.016C535.445,188.849 528.314,176.536 519.531,176.536L282.959,176.536C274.175,176.536 267.044,188.849 267.044,204.016L267.044,417.457C267.044,432.624 274.175,444.937 282.959,444.937L519.531,444.937C528.314,444.937 535.445,432.624 535.445,417.457L535.445,204.016Z" style="fill:url(#_Linear2);"/>
        </g>
        <g id="Background2" serif:id="Background" transform="matrix(0.374409,0,0,0.216836,304.016,163.001)">
            <path d="M535.445,204.016C535.445,188.849 528.314,176.536 519.531,176.536L282.959,176.536C274.175,176.536 267.044,188.849 267.044,204.016L267.044,417.457C267.044,432.624 274.175,444.937 282.959,444.937L519.531,444.937C528.314,444.937 535.445,432.624 535.445,417.457L535.445,204.016Z" style="fill:url(#_Linear3);"/>
        </g>
        <g id="Background3" serif:id="Background" transform="matrix(0.374409,0,0,0.216836,304.016,409.955)">
            <path d="M535.445,204.016C535.445,188.849 528.314,176.536 519.531,176.536L282.959,176.536C274.175,176.536 267.044,188.849 267.044,204.016L267.044,417.457C267.044,432.624 274.175,444.937 282.959,444.937L519.531,444.937C528.314,444.937 535.445,432.624 535.445,417.457L535.445,204.016Z" style="fill:url(#_Linear4);"/>
        </g>
        <g id="Background4" serif:id="Background" transform="matrix(0.374409,0,0,0.216836,187.985,409.955)">
            <path d="M535.445,204.016C535.445,188.849 528.314,176.536 519.531,176.536L282.959,176.536C274.175,176.536 267.044,188.849 267.044,204.016L267.044,417.457C267.044,432.624 274.175,444.937 282.959,444.937L519.531,444.937C528.314,444.937 535.445,432.624 535.445,417.457L535.445,204.016Z" style="fill:url(#_Linear5);"/>
        </g>
        <g id="Background5" serif:id="Background" transform="matrix(0.374409,0,0,0.216836,71.9534,409.955)">
            <path d="M535.445,204.016C535.445,188.849 528.314,176.536 519.531,176.536L282.959,176.536C274.175,176.536 267.044,188.849 267.044,204.016L267.044,417.457C267.044,432.624 274.175,444.937 282.959,444.937L519.531,444.937C528.314,444.937 535.445,432.624 535.445,417.457L535.445,204.016Z" style="fill:url(#_Linear6);"/>
        </g>
        <g id="Background6" serif:id="Background" transform="matrix(0.374409,0,0,0.216836,304.016,348.217)">
            <path d="M535.445,204.016C535.445,188.849 528.314,176.536 519.531,176.536L282.959,176.536C274.175,176.536 267.044,188.849 267.044,204.016L267.044,417.457C267.044,432.624 274.175,444.937 282.959,444.937L519.531,444.937C528.314,444.937 535.445,432.624 535.445,417.457L535.445,204.016Z" style="fill:url(#_Linear7);"/>
        </g>
        <g id="Background7" serif:id="Background" transform="matrix(0.374409,0,0,0.216836,187.985,348.217)">
            <path d="M535.445,204.016C535.445,188.849 528.314,176.536 519.531,176.536L282.959,176.536C274.175,176.536 267.044,188.849 267.044,204.016L267.044,417.457C267.044,432.624 274.175,444.937 282.959,444.937L519.531,444.937C528.314,444.937 535.445,432.624 535.445,417.457L535.445,204.016Z" style="fill:url(#_Linear8);"/>
        </g>
        <g id="Background8" serif:id="Background" transform="matrix(0.374409,0,0,0.216836,71.9534,348.217)">
            <path d="M535.445,204.016C535.445,188.849 528.314,176.536 519.531,176.536L282.959,176.536C274.175,176.536 267.044,188.849 267.044,204.016L267.044,417.457C267.044,432.624 274.175,444.937 282.959,444.937L519.531,444.937C528.314,444.937 535.445,432.624 535.445,417.457L535.445,204.016Z" style="fill:url(#_Linear9);"/>
        </g>
        <g id="Background9" serif:id="Background" transform="matrix(0.374409,0,0,0.216836,304.016,286.478)">
            <path d="M535.445,204.016C535.445,188.849 528.314,176.536 519.531,176.536L282.959,176.536C274.175,176.536 267.044,188.849 267.044,204.016L267.044,417.457C267.044,432.624 274.175,444.937 282.959,444.937L519.531,444.937C528.314,444.937 535.445,432.624 535.445,417.457L535.445,204.016Z" style="fill:url(#_Linear10);"/>
        </g>
        <g id="Background10" serif:id="Background" transform="matrix(0.374409,0,0,0.216836,187.985,286.478)">
            <path d="M535.445,204.016C535.445,188.849 528.314,176.536 519.531,176.536L282.959,176.536C274.175,176.536 267.044,188.849 267.044,204.016L267.044,417.457C267.044,432.624 274.175,444.937 282.959,444.937L519.531,444.937C528.314,444.937 535.445,432.624 535.445,417.457L535.445,204.016Z" style="fill:url(#_Linear11);"/>
        </g>
        <g id="Background11" serif:id="Background" transform="matrix(0.374409,0,0,0.216836,71.9534,286.478)">
            <path d="M535.445,204.016C535.445,188.849 528.314,176.536 519.531,176.536L282.959,176.536C274.175,176.536 267.044,188.849 267.044,204.016L267.044,417.457C267.044,432.624 274.175,444.937 282.959,444.937L519.531,444.937C528.314,444.937 535.445,432.624 535.445,417.457L535.445,204.016Z" style="fill:url(#_Linear12);"/>
        </g>
        <g id="Background12" serif:id="Background" transform="matrix(0.374409,0,0,0.216836,304.016,224.74)">
            <path d="M535.445,204.016C535.445,188.849 528.314,176.536 519.531,176.536L282.959,176.536C274.175,176.536 267.044,188.849 267.044,204.016L267.044,417.457C267.044,432.624 274.175,444.937 282.959,444.937L519.531,444.937C528.314,444.937 535.445,432.624 535.445,417.457L535.445,204.016Z" style="fill:url(#_Linear13);"/>
        </g>
        <g id="Background13" serif:id="Background" transform="matrix(0.374409,0,0,0.216836,187.985,224.74)">
            <path d="M535.445,204.016C535.445,188.849 528.314,176.536 519.531,176.536L282.959,176.536C274.175,176.536 267.044,188.849 267.044,204.016L267.044,417.457C267.044,432.624 274.175,444.937 282.959,444.937L519.531,444.937C528.314,444.937 535.445,432.624 535.445,417.457L535.445,204.016Z" style="fill:url(#_Linear14);"/>
        </g>
        <g id="Background14" serif:id="Background" transform="matrix(0.374409,0,0,0.216836,71.9534,224.74)">
            <path d="M535.445,204.016C535.445,188.849 528.314,176.536 519.531,176.536L282.959,176.536C274.175,176.536 267.044,188.849 267.044,204.016L267.044,417.457C267.044,432.624 274.175,444.937 282.959,444.937L519.531,444.937C528.314,444.937 535.445,432.624 535.445,417.457L535.445,204.016Z" style="fill:url(#_Linear15);"/>
        </g>
    </g>
    <defs>
        <linearGradient id="_Linear1" x1="0" y1="0" x2="1" y2="0" gradientUnits="userSpaceOnUse" gradientTransform="matrix(268.401,0,0,268.401,267.044,310.736)"><stop offset="0" style="stop-color:rgb(242,204,12);stop-opacity:1"/><stop offset="1" style="stop-color:rgb(255,152,48);stop-opacity:1"/></linearGradient>
        <linearGradient id="_Linear2" x1="0" y1="0" x2="1" y2="0" gradientUnits="userSpaceOnUse" gradientTransform="matrix(268.401,0,0,268.401,267.044,310.736)"><stop offset="0" style="stop-color:rgb(242,204,12);stop-opacity:1"/><stop offset="1" style="stop-color:rgb(255,152,48);stop-opacity:1"/></linearGradient>
        <linearGradient id="_Linear3" x1="0" y1="0" x2="1" y2="0" gradientUnits="userSpaceOnUse" gradientTransform="matrix(268.401,0,0,268.401,267.044,310.736)"><stop offset="0" style="stop-color:rgb(242,204,12);stop-opacity:1"/><stop offset="1" style="stop-color:rgb(255,152,48);stop-opacity:1"/></linearGradient>
        <linearGradient id="_Linear4" x1="0" y1="0" x2="1" y2="0" gradientUnits="userSpaceOnUse" gradientTransform="matrix(268.401,0,0,268.401,267.044,310.736)"><stop offset="0" style="stop-color:rgb(83,138,222);stop-opacity:1"/><stop offset="1" style="stop-color:rgb(56,101,171);stop-opacity:1"/></linearGradient>
        <linearGradient id="_Linear5" x1="0" y1="0" x2="1" y2="0" gradientUnits="userSpaceOnUse" gradientTransform="matrix(268.401,0,0,268.401,267.044,310.736)"><stop offset="0" style="stop-color:rgb(83,138,222);stop-opacity:1"/><stop offset="1" style="stop-color:rgb(56,101,171);stop-opacity:1"/></linearGradient>
        <linearGradient id="_Linear6" x1="0" y1="0" x2="1" y2="0" gradientUnits="userSpaceOnUse" gradientTransform="matrix(268.401,0,0,268.401,267.044,310.736)"><stop offset="0" style="stop-color:rgb(83,138,222);stop-opacity:1"/><stop offset="1" style="stop-color:rgb(56,101,171);stop-opacity:1"/></linearGradient>
        <linearGradient id="_Linear7" x1="0" y1="0" x2="1" y2="0" gradientUnits="userSpaceOnUse" gradientTransform="matrix(268.401,0,0,268.401,267.044,310.736)"><stop offset="0" style="stop-color:rgb(83,138,222);stop-opacity:1"/><stop offset="1" style="stop-color:rgb(56,101,171);stop-opacity:1"/></linearGradient>
        <linearGradient id="_Linear8" x1="0" y1="0" x2="1" y2="0" gradientUnits="userSpaceOnUse" gradientTransform="matrix(268.401,0,0,268.401,267.044,310.736)"><stop offset="0" style="stop-color:rgb(83,138,222);stop-opacity:1"/><stop offset="1" style="stop-color:rgb(56,101,171);stop-opacity:1"/></linearGradient>
        <linearGradient id="_Linear9" x1="0" y1="0" x2="1" y2="0" gradientUnits="userSpaceOnUse" gradientTransform="matrix(268.401,0,0,268.401,267.044,310.736)"><stop offset="0" style="stop-color:rgb(83,138,222);stop-opacity:1"/><stop offset="1" style="stop-color:rgb(56,101,171);stop-opacity:1"/></linearGradient>
        <linearGradient id="_Linear10" x1="0" y1="0" x2="1" y2="0" gradientUnits="userSpaceOnUse" gradientTransform="matrix(268.401,0,0,268.401,267.044,310.736)"><stop offset="0" style="stop-color:rgb(83,138,222);stop-opacity:1"/><stop offset="1" style="stop-color:rgb(56,101,171);stop-opacity:1"/></linearGradient>
        <linearGradient id="_Linear11" x1="0" y1="0" x2="1" y2="0" gradientUnits="userSpaceOnUse" gradientTransform="matrix(268.401,0,0,268.401,267.044,310.736)"><stop offset="0" style="stop-color:rgb(83,138,222);stop-opacity:1"/><stop offset="1" style="stop-color:rgb(56,101,171);stop-opacity:1"/></linearGradient>
        <linearGradient id="_Linear12" x1="0" y1="0" x2="1" y2="0" gradientUnits="userSpaceOnUse" gradientTransform="matrix(268.401,0,0,268.401,267.044,310.736)"><stop offset="0" style="stop-color:rgb(83,138,222);stop-opacity:1"/><stop offset="1" style="stop-color:rgb(56,101,171);stop-opacity:1"/></linearGradient>
        <linearGradient id="_Linear13" x1="0" y1="0" x2="1" y2="0" gradientUnits="userSpaceOnUse" gradientTransform="matrix(268.401,0,0,268.401,267.044,310.736)"><stop offset="0" style="stop-color:rgb(83,138,222);stop-opacity:1"/><stop offset="1" style="stop-color:rgb(56,101,171);stop-opacity:1"/></linearGradient>
        <linearGradient id="_Linear14" x1="0" y1="0" x2="1" y2="0" gradientUnits="userSpaceOnUse" gradientTransform="matrix(268.401,0,0,268.401,267.044,310.736)"><stop offset="0" style="stop-color:rgb(83,138,222);stop-opacity:1"/><stop offset="1" style="stop-color:rgb(56,101,171);stop-opacity:1"/></linearGradient>
        <linearGradient id="_Linear15" x1="0" y1="0" x2="1" y2="0" gradientUnits="userSpaceOnUse" gradientTransform="matrix(268.401,0,0,268.401,267.044,310.736)"><stop offset="0" style="stop-color:rgb(83,138,222);stop-opacity:1"/><stop offset="1" style="stop-color:rgb(56,101,171);stop-opacity:1"/></linearGradient>
    </defs>
</svg>
