<svg xmlns="http://www.w3.org/2000/svg" xmlns:xlink="http://www.w3.org/1999/xlink" viewBox="0 0 80.9 80.9"><defs><style>.cls-1{fill:#3865ab;}.cls-2{fill:url(#linear-gradient);}.cls-3{fill:#84aff1;}</style><linearGradient id="linear-gradient" x1="32.73" y1="30.99" x2="33.06" y2="50.21" gradientUnits="userSpaceOnUse"><stop offset="0" stop-color="#f2cc0c"/><stop offset="1" stop-color="#ff9830"/></linearGradient></defs><g id="Layer_2" data-name="Layer 2"><g id="Layer_1-2" data-name="Layer 1"><path class="cls-1" d="M67.64,40.45c0-.67,0-1.34-.08-2H72.7a32.13,32.13,0,0,0-3.31-12.4l-4.45,2.57a28.34,28.34,0,0,0-2-3.46l4.46-2.57a32.44,32.44,0,0,0-9.08-9.08L55.74,18a28.34,28.34,0,0,0-3.46-2l2.57-4.45A32.18,32.18,0,0,0,42.45,8.2v5.14c-.66-.05-1.33-.08-2-.08s-1.34,0-2,.08V8.19a32.37,32.37,0,0,0-12.4,3.32L28.62,16a28.34,28.34,0,0,0-3.46,2l-2.57-4.46a32.44,32.44,0,0,0-9.08,9.08L18,25.16a28.34,28.34,0,0,0-2,3.46l-4.45-2.57A32.13,32.13,0,0,0,8.2,38.45h5.14c-.05.66-.08,1.33-.08,2s0,1.34.08,2H8.2a32.18,32.18,0,0,0,3.31,12.4L16,52.28a28.34,28.34,0,0,0,2,3.46l-4.46,2.57a32.44,32.44,0,0,0,9.08,9.08l2.57-4.46a28.34,28.34,0,0,0,3.46,2l-2.57,4.45a32.18,32.18,0,0,0,12.4,3.31V67.56c.66,0,1.33.08,2,.08s1.34,0,2-.08V72.7a32.18,32.18,0,0,0,12.4-3.31l-2.57-4.45a28.34,28.34,0,0,0,3.46-2l2.57,4.46a32.44,32.44,0,0,0,9.08-9.08l-4.46-2.57a28.34,28.34,0,0,0,2-3.46l4.45,2.57a32.18,32.18,0,0,0,3.31-12.4H67.56C67.6,41.79,67.64,41.12,67.64,40.45Z"/><path class="cls-2" d="M42.45,25.46a2,2,0,1,0-4,0V39.31L24.21,47.72a2,2,0,1,0,2,3.44l15.22-9,0,0,.18-.13.14-.12.12-.14.13-.15a.86.86,0,0,0,.1-.16l.09-.17a1.27,1.27,0,0,0,.06-.18,1.46,1.46,0,0,0,.07-.19c0-.06,0-.12,0-.17a1.79,1.79,0,0,0,0-.23.07.07,0,0,0,0,0Z"/><path class="cls-3" d="M40.45,80.9A40.45,40.45,0,1,1,80.9,40.45,40.5,40.5,0,0,1,40.45,80.9Zm0-76.9A36.45,36.45,0,1,0,76.9,40.45,36.49,36.49,0,0,0,40.45,4Z"/></g></g></svg>