<svg height="264" viewBox="0 0 312 264" width="312" xmlns="http://www.w3.org/2000/svg"><g fill="#edf4ff" stroke="#fff" stroke-width="2"><rect height="110" rx="5" stroke="none" width="111"/><rect fill="none" height="108" rx="4" width="109" x="1" y="1"/></g><g fill="rgb(245, 158, 11)"><path d="m86.858 283.568c-.185-.155-1.854-1.421-5.438-1.421a17.286 17.286 0 0 0 -2.812.247 10.593 10.593 0 0 0 -4.758-7.137l-.958-.556-.618.9a13.213 13.213 0 0 0 -1.7 3.955 9.389 9.389 0 0 0 1.112 7.385 13.109 13.109 0 0 1 -4.851 1.174h-43.874a2.07 2.07 0 0 0 -2.07 2.07 31.265 31.265 0 0 0 1.916 11.278 16.914 16.914 0 0 0 6.674 8.682c3.275 2.008 8.62 3.151 14.646 3.151a44.92 44.92 0 0 0 8.126-.741 33.538 33.538 0 0 0 10.629-3.862 29.091 29.091 0 0 0 7.23-5.932 39.337 39.337 0 0 0 7.076-12.2h.612a10.166 10.166 0 0 0 7.446-2.812 8.228 8.228 0 0 0 1.977-2.9l.278-.8z" transform="translate(1.865 -234.228)"/><path d="m39.625 299.9h5.875a.521.521 0 0 0 .525-.525v-5.253a.521.521 0 0 0 -.525-.525h-5.875a.521.521 0 0 0 -.525.525v5.253a.541.541 0 0 0 .525.525z" transform="translate(-10.721 -247.288)"/><path d="m65.825 299.9h5.875a.521.521 0 0 0 .525-.525v-5.253a.521.521 0 0 0 -.525-.525h-5.875a.521.521 0 0 0 -.525.525v5.253a.541.541 0 0 0 .525.525" transform="translate(-28.825 -247.288)"/><path d="m92.525 299.9h5.875a.521.521 0 0 0 .525-.525v-5.253a.521.521 0 0 0 -.525-.525h-5.875a.521.521 0 0 0 -.525.525v5.253a.5.5 0 0 0 .525.525z" transform="translate(-47.276 -247.288)"/><path d="m118.825 299.9h5.875a.521.521 0 0 0 .525-.525v-5.253a.521.521 0 0 0 -.525-.525h-5.871a.521.521 0 0 0 -.525.525v5.253a.521.521 0 0 0 .525.525" transform="translate(-65.45 -247.288)"/><path d="m65.825 275.6h5.875a.541.541 0 0 0 .525-.525v-5.253a.521.521 0 0 0 -.525-.525h-5.875a.521.521 0 0 0 -.525.525v5.253a.565.565 0 0 0 .525.525" transform="translate(-28.825 -230.496)"/><path d="m92.525 275.6h5.875a.541.541 0 0 0 .525-.525v-5.253a.521.521 0 0 0 -.525-.525h-5.875a.521.521 0 0 0 -.525.525v5.253a.521.521 0 0 0 .525.525" transform="translate(-47.276 -230.496)"/><path d="m118.825 275.6h5.875a.541.541 0 0 0 .525-.525v-5.253a.541.541 0 0 0 -.525-.525h-5.871a.521.521 0 0 0 -.525.525v5.253a.541.541 0 0 0 .525.525" transform="translate(-65.45 -230.496)"/><path d="m118.825 251.2h5.875a.521.521 0 0 0 .525-.525v-5.253a.542.542 0 0 0 -.525-.525h-5.871a.521.521 0 0 0 -.525.525v5.253a.541.541 0 0 0 .525.525" transform="translate(-65.45 -213.635)"/><path d="m145.325 299.9h5.875a.521.521 0 0 0 .525-.525v-5.253a.521.521 0 0 0 -.525-.525h-5.871a.521.521 0 0 0 -.525.525v5.253a.541.541 0 0 0 .525.525" transform="translate(-83.762 -247.288)"/></g><g transform="translate(68 50.617)"><g fill="#edf4ff" stroke="#fff" stroke-width="2"><rect height="111" rx="5" stroke="none" width="109"/><rect fill="none" height="109" rx="4" width="107" x="1" y="1"/></g><path d="m46.247 43.7a30.492 30.492 0 0 1 -3.015 5.421 27.544 27.544 0 0 1 -3.884 4.694 7.534 7.534 0 0 1 -4.992 2.2 12.511 12.511 0 0 1 -4.611-1.1 13.23 13.23 0 0 0 -4.964-1.1 13.679 13.679 0 0 0 -5.1 1.1 13.734 13.734 0 0 1 -4.411 1.16 7.094 7.094 0 0 1 -5.1-2.257 28.921 28.921 0 0 1 -4.07-4.859 33.612 33.612 0 0 1 -4.3-8.533 31.244 31.244 0 0 1 -1.8-10.169 18.571 18.571 0 0 1 2.439-9.717 14.306 14.306 0 0 1 5.108-5.166 13.74 13.74 0 0 1 6.905-1.949 16.259 16.259 0 0 1 5.341 1.243 17.169 17.169 0 0 0 4.236 1.246 25.346 25.346 0 0 0 4.7-1.467 15.526 15.526 0 0 1 6.385-1.134q7.077.571 10.62 5.592-6.334 3.835-6.268 10.732a11.839 11.839 0 0 0 3.887 8.92 12.775 12.775 0 0 0 3.884 2.543q-.467 1.355-.99 2.6zm-10.821-42.577a11.964 11.964 0 0 1 -3.067 7.847c-2.465 2.881-5.446 4.546-8.679 4.284a8.73 8.73 0 0 1 -.065-1.063 12.292 12.292 0 0 1 3.254-7.93 12.527 12.527 0 0 1 3.964-2.976 11.818 11.818 0 0 1 4.534-1.285 10.193 10.193 0 0 1 .059 1.122z" fill="rgb(245, 158, 11)" transform="translate(30.247 25.709)"/></g><g fill="#edf4ff" stroke="#fff" stroke-width="2"><rect height="111" rx="5" stroke="none" width="109" x="135" y="102.383"/><rect fill="none" height="109" rx="4" width="107" x="136" y="103.383"/></g><path d="m0 10.4 21-2.858.009 20.253-20.99.119z" fill="rgb(245, 158, 11)" transform="translate(164.439 127.529)"/><path d="m40 4.063 27.836-4.063v24.433l-27.836.221z" fill="rgb(245, 158, 11)" transform="translate(147.975 130.634)"/><path d="m21 45.836.016 20.271-20.989-2.886v-17.521z" fill="rgb(245, 158, 11)" transform="translate(164.428 111.822)"/><path d="m67.816 46.223-.006 24.323-27.84-3.929-.039-20.439z" fill="rgb(245, 158, 11)" transform="translate(148.002 111.625)"/><g fill="#edf4ff" stroke="#fff" stroke-width="2"><rect height="110" rx="5" stroke="none" width="111" x="201" y="154"/><rect fill="none" height="108" rx="4" width="109" x="202" y="155"/></g><path d="m2358.226 392.3a8.839 8.839 0 0 1 -3.933 1.33 5.43 5.43 0 0 1 -3.377-1.307c-.406-.322-.737-.643-.986-.876-.432-.341-.381-.82-.2-.805.3.037.343.429.53.6.255.237.572.545.957.85a4.95 4.95 0 0 0 3.079 1.2 8.506 8.506 0 0 0 3.693-1.265 19.793 19.793 0 0 0 1.714-1.206c.412-.3.4-.665.737-.626s.088.4-.387.818a10.652 10.652 0 0 1 -1.827 1.287z" fill="rgb(245, 158, 11)" transform="translate(-2098.958 -195.236)"/><path d="m2135.113 207.875a6 6 0 0 1 -.89-2.438 4.834 4.834 0 0 0 -1.3-2.767 3.37 3.37 0 0 0 -.5-.36 3.245 3.245 0 0 0 -.508-.245 14.285 14.285 0 0 0 -.458-9.765 32.773 32.773 0 0 0 -5.746-9.189c-2.1-2.652-4.159-5.17-4.118-8.889.063-5.676.625-16.2-9.363-16.215-.406 0-.831.016-1.271.052-11.162.9-8.2 12.69-8.367 16.638a14.27 14.27 0 0 1 -2.775 7.986c-2.333 2.774-5.618 7.265-7.174 11.939a14.265 14.265 0 0 0 -.761 6.583c-.1.091-.2.186-.289.283-.685.732-1.191 1.618-1.755 2.214a5.437 5.437 0 0 1 -2.1 1.021 3.778 3.778 0 0 0 -2.281 1.788.008.008 0 0 1 0 .005 3.179 3.179 0 0 0 -.343 1.532 9.745 9.745 0 0 0 .145 1.461 6.424 6.424 0 0 1 .1 2.565c-.653 1.786-.738 3.02-.277 3.916a3.316 3.316 0 0 0 2.479 1.517c2.142.447 5.042.336 7.328 1.548l.2-.371-.195.371a10.41 10.41 0 0 0 6.906 1.282 4.487 4.487 0 0 0 3.2-2.5c1.547-.007 3.246-.663 5.967-.813 1.845-.149 4.152.656 6.8.508a3.663 3.663 0 0 0 .307.828l.005.007a4.957 4.957 0 0 0 4.974 2.836 9.023 9.023 0 0 0 5.958-3.448l-.322-.27.324.267c1.67-2.025 4.442-2.865 6.281-3.973a2.973 2.973 0 0 0 1.722-2.257c.05-1.008-.542-2.137-1.903-3.647zm-24.661-37.063a4.692 4.692 0 0 1 .4-2.023 3.59 3.59 0 0 1 1.135-1.489 2.509 2.509 0 0 1 1.565-.556h.027a2.518 2.518 0 0 1 1.547.527 3.537 3.537 0 0 1 1.162 1.467 4.712 4.712 0 0 1 .44 1.96.206.206 0 0 0 0 .055 4.756 4.756 0 0 1 -.4 2.023 3.9 3.9 0 0 1 -.567.946q-.113-.054-.235-.1c-.281-.12-.529-.219-.752-.3s-.4-.141-.575-.2a2.512 2.512 0 0 0 .48-.574 3.043 3.043 0 0 0 .229-1.1c0-.016 0-.03 0-.049a3.041 3.041 0 0 0 -.158-1.066 1.962 1.962 0 0 0 -.491-.831 1.007 1.007 0 0 0 -.7-.321h-.037a1.036 1.036 0 0 0 -.686.272 1.969 1.969 0 0 0 -.551.793 3.069 3.069 0 0 0 -.228 1.1v.046a3.2 3.2 0 0 0 .044.632 8.026 8.026 0 0 0 -1.6-.544 5.4 5.4 0 0 1 -.045-.6zm-6.585-1.6a3.018 3.018 0 0 1 .755-1.322 1.624 1.624 0 0 1 1.1-.532h.1a1.641 1.641 0 0 1 1.061.4 3.087 3.087 0 0 1 .9 1.23 4.763 4.763 0 0 1 .4 1.728v.005a4.953 4.953 0 0 1 -.006.768c-.074.021-.146.044-.218.069a4.456 4.456 0 0 0 -1.038.5 2.806 2.806 0 0 0 .011-.677.277.277 0 0 1 0-.038 2.957 2.957 0 0 0 -.215-.869 1.673 1.673 0 0 0 -.438-.641.711.711 0 0 0 -.484-.2h-.053a.7.7 0 0 0 -.5.291 1.681 1.681 0 0 0 -.318.706 2.831 2.831 0 0 0 -.06.929v.038a2.866 2.866 0 0 0 .214.872 1.664 1.664 0 0 0 .437.638c.03.026.06.049.089.07-.185.144-.31.246-.464.358l-.35.257a3.2 3.2 0 0 1 -.729-1.084 4.86 4.86 0 0 1 -.4-1.727v-.005a4.841 4.841 0 0 1 .206-1.761zm.289 5.651c.59-.442 1-.743 1.273-.943a5.758 5.758 0 0 0 .47-.357 6.053 6.053 0 0 1 2.215-1.55 3.771 3.771 0 0 1 1.232-.209 5.9 5.9 0 0 1 3.2 1.1 19.6 19.6 0 0 0 2.792 1.151 2.329 2.329 0 0 1 1.263 1.017 1.473 1.473 0 0 1 .036 1.224 4.309 4.309 0 0 1 -2.806 2.23 12.156 12.156 0 0 0 -2.051 1.152 4.57 4.57 0 0 1 -2.666.686 3.462 3.462 0 0 1 -1.182-.262 3.636 3.636 0 0 1 -.854-.53 13.02 13.02 0 0 0 -1.618-1.319 3.632 3.632 0 0 1 -1.815-1.888 1.284 1.284 0 0 1 .511-1.5zm.416 41.206v.01a3.518 3.518 0 0 1 -2.969 3.434 9.675 9.675 0 0 1 -6.328-1.206c-2.557-1.354-5.6-1.219-7.547-1.627a2.515 2.515 0 0 1 -1.9-1.079c-.292-.57-.3-1.562.322-3.255v-.007-.007a6.489 6.489 0 0 0 -.071-2.956 4.176 4.176 0 0 1 .112-2.473v-.006a2.846 2.846 0 0 1 1.823-1.39 5.845 5.845 0 0 0 2.416-1.223c.67-.707 1.172-1.593 1.761-2.222a2.3 2.3 0 0 1 1.743-.887h.026a2.84 2.84 0 0 1 .418.035 4.335 4.335 0 0 1 2.7 1.979l2.413 4.4a30.311 30.311 0 0 0 3.147 4.32c1.162 1.496 2.049 3.007 1.934 4.162zm-.2-3.193c-.317-.5-.68-1-1.054-1.486-.238-.312-.484-.623-.727-.929a2.945 2.945 0 0 0 1.217-.227 1.535 1.535 0 0 0 .839-.868c.285-.766 0-1.846-.913-3.081a16.717 16.717 0 0 0 -4.724-4.017 6.691 6.691 0 0 1 -3.036-3.687 8.291 8.291 0 0 1 -.039-4.346 25.821 25.821 0 0 1 3.363-7.3c.285-.209.1.389-1.072 2.568-1.051 1.991-3.016 6.587-.326 10.175a21.336 21.336 0 0 1 1.705-7.593c1.491-3.379 4.609-9.24 4.857-13.912.128.093.567.389.762.5a14.222 14.222 0 0 1 1.557 1.276 3.853 3.853 0 0 0 2.307.9q.152.009.3.009a5.158 5.158 0 0 0 2.636-.757 13.451 13.451 0 0 1 1.957-1.111 5.256 5.256 0 0 0 2.753-1.851 63.76 63.76 0 0 0 4.59 11.818 27.538 27.538 0 0 1 2.912 7.978 4.893 4.893 0 0 1 1.352.172c1.7-4.408-1.441-9.155-2.879-10.477-.581-.563-.608-.815-.32-.8a15.182 15.182 0 0 1 4.349 7.28 9.324 9.324 0 0 1 .048 4.408c.177.074.359.154.543.241 2.729 1.329 3.737 2.484 3.253 4.062-.16-.006-.318-.005-.471 0h-.043c.4-1.25-.479-2.172-2.812-3.227-2.419-1.064-4.348-.959-4.674 1.2-.021.113-.038.228-.05.345a3.61 3.61 0 0 0 -.545.242 4.586 4.586 0 0 0 -2.1 3.134 27.022 27.022 0 0 0 -.538 4.932 19.24 19.24 0 0 1 -.842 3.575c-3.966 2.82-9.467 4.045-14.138.857zm31.8-1.4c-.035.622-.486 1.084-1.317 1.585-1.663 1-4.611 1.876-6.492 4.155a8.239 8.239 0 0 1 -5.382 3.151 4.034 4.034 0 0 1 -4.161-2.381c-.555-1.054-.324-2.716.143-4.47a29.9 29.9 0 0 0 1.227-5.017 26.917 26.917 0 0 1 .513-4.776 3.717 3.717 0 0 1 1.69-2.6c.042-.022.082-.043.122-.063.1 1.624.9 3.28 2.325 3.639 1.555.41 3.8-.924 4.742-2.013.189-.007.374-.017.552-.021a2.909 2.909 0 0 1 2.239.65 4.312 4.312 0 0 1 1.033 2.319 6.133 6.133 0 0 0 1.082 2.81c1.3 1.433 1.718 2.407 1.681 3.03z" fill="rgb(245, 158, 11)" transform="translate(-1853.661 19.851)"/><path d="m2427.834 359.35c.048.153.295.128.438.2.125.064.225.206.366.21s.343-.047.361-.18c.023-.176-.234-.288-.4-.352a.842.842 0 0 0 -.684-.014c-.046.025-.1.085-.081.135z" fill="rgb(245, 158, 11)" transform="translate(-2171.427 -166.473)"/><path d="m2393.467 359.35c-.047.153-.294.128-.436.2-.125.064-.226.206-.366.21s-.344-.047-.361-.18c-.023-.176.233-.288.4-.352a.843.843 0 0 1 .684-.014c.045.025.1.085.079.135z" fill="rgb(245, 158, 11)" transform="translate(-2138.516 -166.473)"/></svg>