<svg height="264" viewBox="0 0 317 264" width="317" xmlns="http://www.w3.org/2000/svg" xmlns:xlink="http://www.w3.org/1999/xlink"><linearGradient id="a" gradientUnits="objectBoundingBox" x1="235.226" x2="238.324" y1="-281.53" y2="-281.53"><stop offset="0" stop-color="#7acbbf"/><stop offset="1" stop-color="#3ea4db"/></linearGradient><g fill="none" stroke="#edf4ff" stroke-width="3"><ellipse cx="158.501" cy="138" rx="109.5" ry="109" stroke="none"/><ellipse cx="158.501" cy="138" fill="none" rx="108" ry="107.5"/></g><ellipse cx="268.501" cy="78" fill="#eff4fd" rx="48.5" ry="49"/><path d="m65.183 5.269a21.9 21.9 0 1 0 21.9 21.9 21.9 21.9 0 0 0 -21.9-21.9zm0 40.982c-3.44 0-6.23-2.3-6.23-5.133h12.46c0 2.833-2.791 5.133-6.23 5.133zm10.29-6.832h-20.583v-3.735h20.57v3.734zm-.073-5.654h-20.45l-.2-.236a14.908 14.908 0 0 1 -3.084-5.254c-.008-.045 2.555.524 4.372.933q1.146.257 2.3.465a8.542 8.542 0 0 1 -2.092-5.493c0-4.389 3.367-8.225 2.151-11.325 1.182.1 2.446 2.495 2.531 6.246 1.258-1.736 1.782-4.908 1.782-6.852 0-2.014 1.327-4.352 2.653-4.432-1.183 1.95.307 3.621 1.63 7.767.5 1.559.432 4.179.816 5.839.127-3.452.721-8.49 2.911-10.227-.966 2.188.144 4.93.9 6.247a11.834 11.834 0 0 1 1.965 6.781 8.464 8.464 0 0 1 -2.026 5.467c1.446-.271 2.445-.516 2.445-.516l4.7-.917a13.317 13.317 0 0 1 -3.3 5.508z" fill="#da4e31" transform="translate(203.216 49.992)"/><circle cx="158.501" cy="48.5" fill="#eff4fd" r="48.5"/><path d="m49.483 39.274-4.057-17.641a3.228 3.228 0 0 0 -2.047-2.2l-18.5-5.7a2.483 2.483 0 0 0 -.773-.115 3.431 3.431 0 0 0 -2.164.773l-13.293 12.316a3.286 3.286 0 0 0 -.889 2.859l4.327 18.891a3.228 3.228 0 0 0 2.047 2.2l17.307 5.318a2.483 2.483 0 0 0 .773.115 3.431 3.431 0 0 0 2.164-.773l14.222-13.171a3.252 3.252 0 0 0 .889-2.9zm-22.7-21.325 12.673 3.9c.5.156.5.387 0 .5l-6.683 1.557a1.905 1.905 0 0 1 -1.557-.463l-4.675-5.023c-.387-.425-.27-.619.233-.463zm7.917 22.791c.13.5-.195.811-.7.656l-13.715-4.25c-.5-.156-.58-.58-.195-.927l10.51-9.735c.387-.348.773-.233.889.27zm-22.6-12.479 11.127-10.354a.968.968 0 0 1 1.352.039l5.6 6.028a.968.968 0 0 1 -.039 1.352l-11.161 10.354a.968.968 0 0 1 -1.352-.039l-5.578-6.027a1.006 1.006 0 0 1 .039-1.352zm2.7 16.457-2.93-12.942c-.13-.5.078-.619.425-.233l4.675 5.023a1.8 1.8 0 0 1 .348 1.583l-2.011 6.568c-.156.5-.387.5-.5 0zm16.3 7.534-14.53-4.482a.955.955 0 0 1 -.619-1.2l2.433-7.843a.955.955 0 0 1 1.2-.619l14.487 4.482a.955.955 0 0 1 .619 1.2l-2.433 7.843a.9.9 0 0 1 -1.157.619zm12.9-10.546-9.735 9c-.387.348-.58.233-.425-.27l2.011-6.568a1.826 1.826 0 0 1 1.2-1.121l6.683-1.557c.541-.078.656.13.27.5zm1.082-1.946-8 1.816a.934.934 0 0 1 -1.121-.7l-3.4-14.8a.934.934 0 0 1 .7-1.121l8-1.816a.934.934 0 0 1 1.121.7l3.4 14.8a.934.934 0 0 1 -.702 1.122z" transform="translate(130.276 16.373)"/><ellipse cx="48.501" cy="78" fill="#eff4fd" rx="48.5" ry="49"/><path d="m53.9 22.611-5.069-.749-1.831-2.168 2.714-1.321 4.5.583 2.325 2.056zm-11.673-3.669-1.24-1.782 2.731-1.1 3.979.485 1.664 1.7-2.717 1.308zm-3.442 1.407-4.354-.642-.754-1.878 3.111-1.155 3.93.51 1.223 1.785zm-8.178.832-4.276-.68-.222-1.977 3.519-1.214 3.871.536.741 1.879zm.34 2.567-4.367 1.907-4.791-.9.1-2.572 4.177-1.549 4.29.685zm-17.087 16.452-6.26-1.813 1.63-4.941 6.439-2.825 5.456 1.251-.22 4.566zm7.219-3.45 6.551 1.687.61 6.288-7.747 5.355-7.772-2.612 1.273-6.9zm12.872-1.9 6.749 1.55 2.245 5.73-5.955 4.833-8.1-2.35-.69-6.264zm.229-.278-1.086-4.218 4.527-2.445 5.751 1.083 2.117 3.919-4.6 3.189zm3.32-6.852-1.206-3.034 3.735-1.806 5 .8 1.939 2.849-3.756 2.263zm8.976-8.043 1.792 2.164-3.159 1.688-4.983-.792-1.245-2.286 3.162-1.389zm-9.314 8.085-4.539 2.425-5.592-1.151-.342-3.243 4.378-1.922 4.916.852zm-2.955-7.927 4.367.648 1.226 2.29-3.734 1.794-4.9-.844-.606-2.423z" fill="url(#a)" fill-rule="evenodd" transform="translate(16.873 42.916)"/><path d="m18.375 40.29a3.726 3.726 0 0 0 -3.02 3.041c-.133 1.5 1.126 2.5 2.806 2.164a3.637 3.637 0 0 0 2.976-3.26 2.125 2.125 0 0 0 -2.762-1.945z" transform="translate(19.248 50.334)"/><path d="m18.6 30.62c-1.188.17-2.218.968-2.293 1.811-.078.876.9 1.452 2.165 1.257s2.273-1.059 2.266-1.909c-.005-.819-.958-1.326-2.138-1.159z" transform="translate(19.542 47.374)"/><path d="m14.539 33.446a3.741 3.741 0 0 0 -3.407 1.13c-.885.967-.742 2.049.365 2.386a3.7 3.7 0 0 0 3.561-1.243c.793-.973.542-1.977-.519-2.273z" transform="translate(17.779 48.225)"/><path d="m25.3 36.469a3.056 3.056 0 0 0 -3.34 1.33 1.876 1.876 0 0 0 1.163 2.828 3.012 3.012 0 0 0 3.485-1.474 1.879 1.879 0 0 0 -1.308-2.684z" transform="translate(21.189 49.148)"/><path d="m27.988 33.081-7.582-1.911-8.22 4.353-1.669 8.148 9.265 3.187 9.118-6.471zm-8.121 11.619-7.139-2.37 1.078-6.337 6.55-3.562 6.095 1.581.527 5.814z" transform="translate(17.767 47.552)"/><path d="m14.754 39.1c-.589-.921-2.172-1-3.592-.171-1.464.851-2.271 2.371-1.743 3.4.548 1.072 2.283 1.162 3.811.195 1.478-.932 2.133-2.469 1.524-3.424z" transform="translate(17.38 49.757)"/><path d="m25.5 32.342a2.733 2.733 0 0 0 -3.063-.119c-1.032.6-1.353 1.662-.67 2.381a2.7 2.7 0 0 0 3.221.132c1.023-.651 1.232-1.724.512-2.394z" transform="translate(21.106 47.75)"/><path d="m14.5 26.3c-1.051.129-2.024.732-2.175 1.366-.154.655.627 1.083 1.742.938s2.074-.792 2.163-1.43c.088-.62-.686-1.004-1.73-.874z" transform="translate(18.316 46.05)"/><path d="m10.706 28.416a3.852 3.852 0 0 0 -3.021.838c-.834.711-.8 1.5.12 1.745a3.807 3.807 0 0 0 3.144-.908c.767-.715.644-1.455-.243-1.675z" transform="translate(16.714 46.688)"/><path d="m16.189 26.713-7.5 3.245-2.05 5.853 7.446 2.208 8.331-4.546.111-5.332zm4.665 6.36-6.491 3.446-5.763-1.654 1.439-4.565 5.973-2.642 5.078 1.174z" transform="translate(16.577 46.185)"/><path d="m10.388 32.517c-.419-.655-1.75-.708-3.013-.118-1.3.6-2.08 1.677-1.713 2.4.38.745 1.818.806 3.166.133 1.313-.656 1.991-1.738 1.56-2.415z" transform="translate(16.249 47.803)"/><path d="m20.279 27.588a2.605 2.605 0 0 0 -2.631-.088c-.963.45-1.36 1.24-.857 1.771a2.565 2.565 0 0 0 2.748.1c.961-.485 1.281-1.282.74-1.783z" transform="translate(19.625 46.333)"/><path d="m33.423 39.832a2.747 2.747 0 0 0 -3.143-1.75 2.376 2.376 0 0 0 -2.053 2.735 2.7 2.7 0 0 0 3.236 1.937 2.344 2.344 0 0 0 1.96-2.922z" transform="translate(23.187 49.658)"/><path d="m30.336 30.334a2.108 2.108 0 0 0 -2.373-1.066c-1.1.156-1.867.891-1.709 1.666.166.8 1.256 1.333 2.424 1.155s1.893-.973 1.658-1.755z" transform="translate(22.589 46.959)"/><path d="m35.926 34.621a2.3 2.3 0 0 0 -2.84 1.209 2.21 2.21 0 0 0 1.854 2.56 2.248 2.248 0 0 0 2.935-1.334 2.282 2.282 0 0 0 -1.949-2.435z" transform="translate(24.669 48.583)"/><path d="m37.1 31.528-7.8-1.754-6.69 3.992.659 7.393 9.661 2.861 6.97-5.831zm-4.665 10.55-7.43-2.128-.713-5.75 5.308-3.267 6.277 1.448 2.041 5.3z" transform="translate(21.477 47.124)"/><path d="m35.059 30.848a2.817 2.817 0 0 0 -2.974-.108 1.262 1.262 0 0 0 -.007 2.184 2.777 2.777 0 0 0 3.122.12 1.274 1.274 0 0 0 -.141-2.196z" transform="translate(24.19 47.306)"/><path d="m32.63 25.13a2.064 2.064 0 0 0 -2.079-.762c-.919.114-1.516.64-1.322 1.192.2.568 1.151.94 2.12.814s1.529-.689 1.281-1.244z" transform="translate(23.496 45.459)"/><path d="m28.064 26.214a2.432 2.432 0 0 0 -2.38.725c-.4.613.054 1.292 1.035 1.5a2.368 2.368 0 0 0 2.45-.783c.341-.614-.16-1.256-1.105-1.442z" transform="translate(22.376 46.015)"/><path d="m37.506 28.113c-1.064-.213-2.083.149-2.293.826-.218.7.5 1.477 1.628 1.717s2.2-.167 2.355-.9c.147-.698-.616-1.427-1.69-1.643z" transform="translate(25.331 46.596)"/><path d="m38.339 25.971-6.676-1.24-5.31 2.819 1.166 5 8 1.861 5.409-3.852zm-3.319 7.18-6.181-1.4-1.047-3.9 4.2-2.291 5.359 1.018 1.931 3.647z" transform="translate(22.625 45.577)"/><path d="m36.641 25.491a2.765 2.765 0 0 0 -2.51-.076c-.669.391-.634 1.078.108 1.535a2.719 2.719 0 0 0 2.615.082c.656-.416.546-1.107-.213-1.541z" transform="translate(24.865 45.705)"/><path d="m27.549 22.007c-.128-.426-.9-.691-1.728-.6s-1.444.508-1.356.944.877.738 1.752.639 1.464-.545 1.332-.983z" transform="translate(22.043 44.551)"/><path d="m23.344 22.86a2.641 2.641 0 0 0 -2.2.567c-.435.477-.128 1 .7 1.164a2.571 2.571 0 0 0 2.262-.606c.394-.478.044-.978-.762-1.125z" transform="translate(20.966 44.99)"/><path d="m32.522 22.667-5.716-.975-5.106 2.214.331 3.833 6.652 1.39 5.325-2.91zm-4.081 5.517-5.155-1.053-.362-2.994 4.046-1.793 4.575.8 1.079 2.82z" transform="translate(21.197 44.644)"/><path d="m24.41 25.574a2.641 2.641 0 0 0 -2.474-.076c-.838.392-1.1 1.081-.561 1.542a2.594 2.594 0 0 0 2.576.082c.836-.422 1.028-1.111.459-1.548z" transform="translate(21.012 45.73)"/><path d="m31.043 22.29a2.673 2.673 0 0 0 -2.21-.059c-.659.307-.74.845-.161 1.2a2.633 2.633 0 0 0 2.291.061c.651-.32.677-.861.08-1.202z" transform="translate(23.218 44.745)"/><path d="m34.323 21.247a2.065 2.065 0 0 0 -1.843-.567c-.787.085-1.268.48-1.064.889a1.989 1.989 0 0 0 1.874.6c.82-.094 1.278-.509 1.033-.922z" transform="translate(24.164 44.329)"/><path d="m38.619 23.425c-.911-.153-1.763.108-1.914.595s.484 1.052 1.439 1.221 1.847-.119 1.955-.635-.561-1.027-1.48-1.181z" transform="translate(25.794 45.163)"/><path d="m39.242 21.867-5.815-.916-4.365 2.082 1.362 3.582 6.8 1.292 4.387-2.707zm-2.5 5.161-5.268-.98-1.162-2.8 3.447-1.686 4.656.747 1.789 2.642z" transform="translate(23.456 44.417)"/><path d="m37.8 21.512a2.73 2.73 0 0 0 -2.164-.055c-.557.29-.494.795.163 1.13a2.689 2.689 0 0 0 2.241.059c.541-.305.423-.813-.24-1.134z" transform="translate(25.356 44.512)"/><path d="m35.608 18.348a2.07 2.07 0 0 0 -1.654-.439c-.69.067-1.091.372-.887.689a2.007 2.007 0 0 0 1.682.463c.714-.073 1.094-.395.859-.713z" transform="translate(24.669 43.48)"/><path d="m32.247 18.968a1.926 1.926 0 0 0 -1.7.409c-.223.342.2.717.95.831s1.539-.082 1.734-.433-.254-.701-.984-.807z" transform="translate(23.894 43.8)"/><path d="m39.453 20.014c-.8-.115-1.532.082-1.647.45s.456.791 1.288.917 1.593-.091 1.675-.478-.512-.773-1.316-.889z" transform="translate(26.134 44.119)"/><path d="m39.938 18.825-5.161-.706-3.7 1.606 1.42 2.7 5.921.953 3.694-2.022zm-1.971 3.9-4.597-.725-1.185-2.114 2.922-1.3 4.124.572 1.654 2.01z" transform="translate(24.074 43.548)"/><path d="m33.927 20.9a2.684 2.684 0 0 0 -2.1-.051c-.587.274-.6.754-.014 1.072a2.647 2.647 0 0 0 2.169.055c.581-.295.546-.776-.055-1.076z" transform="translate(24.168 44.326)"/><path d="m38.674 18.551a2.7 2.7 0 0 0 -1.9-.041c-.478.223-.4.612.189.869a2.666 2.666 0 0 0 1.964.043c.466-.234.347-.622-.253-.871z" transform="translate(25.726 43.621)"/><path d="m22.026 19.054c-.764.074-1.372.414-1.353.767s.687.6 1.486.516 1.39-.439 1.337-.795-.71-.561-1.47-.488z" transform="translate(20.883 43.831)"/><path d="m19.6 20.234a2.826 2.826 0 0 0 -2.041.457c-.448.383-.238.8.484.93a2.769 2.769 0 0 0 2.1-.485c.409-.383.157-.785-.543-.902z" transform="translate(19.855 44.187)"/><path d="m27.945 20.076-4.993-.788-4.881 1.79-.182 3.037 5.683 1.085 5.141-2.283zm-4.445 4.384-4.418-.822.06-2.376 3.869-1.445 3.988.64.532 2.252z" transform="translate(20.029 43.907)"/><path d="m20.2 22.4a2.553 2.553 0 0 0 -2.185-.058c-.791.31-1.108.851-.685 1.211a2.5 2.5 0 0 0 2.263.061c.793-.33 1.054-.875.607-1.214z" transform="translate(19.799 44.777)"/><path d="m26.593 19.77a2.6 2.6 0 0 0 -1.976-.046c-.638.25-.792.683-.327.971a2.565 2.565 0 0 0 2.041.05c.634-.263.744-.699.262-.975z" transform="translate(21.91 43.988)"/><path d="m25.9 17.012c-.081-.273-.687-.443-1.356-.386s-1.176.328-1.12.605.672.468 1.371.4 1.187-.339 1.105-.619z" transform="translate(21.725 43.087)"/><path d="m22.511 17.556a2.523 2.523 0 0 0 -1.751.357c-.349.3-.112.623.54.721a2.469 2.469 0 0 0 1.79-.376c.321-.299.057-.61-.579-.702z" transform="translate(20.86 43.368)"/><path d="m28.759 18.463a2.126 2.126 0 0 0 -1.721.391c-.271.325.081.682.8.791a2.067 2.067 0 0 0 1.758-.413c.236-.332-.141-.669-.837-.769z" transform="translate(22.808 43.645)"/><path d="m29.826 17.429-4.507-.617-4.123 1.4.2 2.337 5.068.814 4.282-1.739zm-3.5 3.382-3.944-.623-.22-1.83 3.266-1.132 3.595.5.666 1.746z" transform="translate(21.043 43.147)"/><path d="m28.669 17.189a2.6 2.6 0 0 0 -1.758-.035c-.542.2-.638.536-.2.761a2.574 2.574 0 0 0 1.809.037c.539-.206.599-.552.149-.763z" transform="translate(22.651 43.211)"/><path d="m31.435 16.513a1.732 1.732 0 0 0 -1.435-.365c-.642.056-1.06.311-.928.576s.787.444 1.452.384 1.069-.328.911-.595z" transform="translate(23.453 42.94)"/><path d="m35.332 16.91-4.575-.587-3.641 1.337.844 2.214 5.161.771 3.702-1.645zm-2.5 3.208-4.016-.588-.716-1.736 2.878-1.075 3.651.476 1.124 1.656z" transform="translate(22.859 42.997)"/><path d="m34.192 16.681a2.665 2.665 0 0 0 -1.728-.033c-.476.187-.476.51.013.723a2.63 2.63 0 0 0 1.777.035c.47-.195.437-.519-.062-.725z" transform="translate(24.391 43.058)"/><path d="m36.6 16.05a2.1 2.1 0 0 0 -1.5-.35c-.613.054-.955.3-.755.55a2.032 2.032 0 0 0 1.522.366c.633-.057.959-.316.733-.566z" transform="translate(25.06 42.803)"/><path d="m40.073 17.361c-.71-.089-1.351.067-1.441.353s.426.614 1.162.711 1.4-.071 1.465-.371-.471-.603-1.186-.693z" transform="translate(26.389 43.308)"/><path d="m40.463 16.426-4.63-.558-3.207 1.274 1.413 2.1 5.236.729 3.186-1.562zm-1.606 3.051-4.073-.558-1.165-1.649 2.529-1.025 3.7.452 1.528 1.576z" transform="translate(24.55 42.858)"/><path d="m39.345 16.209a2.7 2.7 0 0 0 -1.7-.031c-.418.178-.335.485.2.689a2.669 2.669 0 0 0 1.747.033c.408-.185.294-.5-.247-.691z" transform="translate(26.009 42.915)"/><path d="m44.7 21.113a2.91 2.91 0 0 0 -2.084-.562c-.75.084-1.06.474-.681.881a2.845 2.845 0 0 0 2.133.595c.777-.092 1.054-.505.632-.914z" transform="translate(27.356 44.289)"/><path d="m45.38 19.367c-.806-.108-1.47.08-1.488.426s.644.746 1.486.865 1.529-.085 1.511-.451-.697-.73-1.509-.84z" transform="translate(28.006 43.922)"/><path d="m45.486 18.241-5.218-.669-3.194 1.528 2.091 2.552 6 .9 3.081-1.905zm-.921 3.692-4.66-.683-1.705-2 2.512-1.228 4.173.544 2.125 1.9z" transform="translate(25.914 43.38)"/><path d="m44.252 17.981a2.739 2.739 0 0 0 -1.869-.038c-.409.212-.233.58.408.825a2.705 2.705 0 0 0 1.928.042c.397-.224.181-.594-.467-.829z" transform="translate(27.476 43.449)"/><ellipse cx="48.501" cy="186" fill="#eff4fd" rx="48.5" ry="49"/><g fill-rule="evenodd"><path d="m8 36.812a19.254 19.254 0 0 0 .632 4.812h23.43a4.813 4.813 0 0 0 4.812-4.812 4.813 4.813 0 0 0 -4.812-4.812h-23.406a19.236 19.236 0 0 0 -.656 4.812z" fill="#343741" transform="translate(22.654 150.258)"/><path d="m41.744 17.214a17.8 17.8 0 0 0 1.871-2 19.2 19.2 0 0 0 -32.285 3.612h26.305a6.06 6.06 0 0 0 4.109-1.612z" fill="#fec514" transform="translate(21.327 159.823)"/><path d="m37.635 54h-26.305a19.2 19.2 0 0 0 32.285 3.609 17.8 17.8 0 0 0 -1.871-2 6.057 6.057 0 0 0 -4.109-1.609z" fill="#00bfb3" transform="translate(21.327 141.492)"/></g><circle cx="158.501" cy="215.5" fill="#eff4fd" r="48.5"/><path d="m43.938 30.864 19.927 14.073 19.961-14.093-19.926-2.924z" fill="#b7ca9d" transform="translate(95.051 193.763)"/><path d="m47.145 34.56 3.384.994 7.925-12.144-7.925-12.166-3.384 1.307z" fill="#4c622c" transform="translate(95.827 189.725)"/><path d="m49.88 11.255 11.93 2.7v19.553l-11.93 2.112z" fill="#759c3f" transform="translate(96.49 189.727)"/><path d="m56.108 39.049-4.67-1.414v-30.03l4.67-2.335 13.772 17.778z" fill="#4c622c" transform="translate(96.867 188.278)"/><path d="m55.2 5.27 15.937 6.211v23.849l-15.937 3.726z" fill="#759c3f" transform="translate(97.777 188.278)"/><path d="m43.941 34.384 19.927 9.982v-7.006l-19.94-7.08z" fill="#4c622c" transform="translate(95.048 194.334)"/><path d="m59.98 37.362 19.961-7.089v4.1l-19.961 10z" fill="#759c3f" transform="translate(98.935 194.332)"/><path d="m56.56 25.75 4.261 10.345 14.35-11.288h-4.841z" fill="#b7ca9d" transform="translate(98.107 193.009)"/><path d="m60.811 26.008-4.261-.45v9.06l4.261 1.282z" fill="#4c622c" transform="translate(98.105 193.191)"/><path d="m59.98 36.1 14.351-4.31v-6.981l-14.351 1.38z" fill="#759c3f" transform="translate(98.935 193.009)"/><ellipse cx="268.501" cy="186" fill="#eff4fd" rx="48.5" ry="49"/><text fill="#1f60c4" font-family="Helvetica" font-size="16" transform="translate(243.001 181)"><tspan x="0" y="0">30+</tspan><tspan x="0" y="18">Others</tspan></text></svg>