<?xml version="1.0" encoding="utf-8"?>
<svg version="1.1"
	 id="svg-001" xmlns:cc="http://creativecommons.org/ns#" xmlns:dc="http://purl.org/dc/elements/1.1/" xmlns:rdf="http://www.w3.org/1999/02/22-rdf-syntax-ns#" xmlns:svg="http://www.w3.org/2000/svg"
	 xmlns="http://www.w3.org/2000/svg" xmlns:xlink="http://www.w3.org/1999/xlink" x="0px" y="0px" viewBox="0 0 240 240"
	 style="enable-background:new 0 0 240 240;" xml:space="preserve">
<style type="text/css">
	.st0{fill:#17A2B8;}
</style>
<title  id="title-001">JSON logo</title>
<g>
	<path class="st0" d="M18,116.5c12.8,0,14.6-7,14.6-13.3c0-5-0.7-10.1-1.4-15.1c-0.7-5-1.4-9.9-1.4-14.9c0-16.6,10.8-23.6,26.1-23.6
		h3.8v9.9h-3.2c-10.6,0-14.2,5.8-14.2,15.5c0,4.1,0.5,8.5,1.3,12.8c0.7,4.5,1.3,8.8,1.3,13.7c0.2,11.5-4.9,17.3-13,19.4v0.4
		c8.1,2,13.1,8.1,13,19.6c0,4.9-0.5,9.4-1.3,13.7c-0.7,4.5-1.3,8.6-1.3,13c0,10.1,4.1,15.7,14.2,15.7h3.2v9.9h-3.8
		c-14.9,0-26.1-6.5-26.1-24.7c0-4.9,0.7-9.9,1.4-14.8c0.7-4.9,1.4-9.7,1.4-14.6c0-5.6-1.8-13.3-14.6-13.3V116.5z"/>
	<path class="st0" d="M73.5,163.5c0-6.7,4.5-11.3,10.8-11.3s10.6,4.7,10.6,11.3c0,6.5-4.1,11.3-10.8,11.3
		C77.8,174.8,73.5,170,73.5,163.5z"/>
	<path class="st0" d="M110.7,163.5c0-6.7,4.5-11.3,10.8-11.3s10.6,4.7,10.6,11.3c0,6.5-4.1,11.3-10.8,11.3
		C115.1,174.8,110.7,170,110.7,163.5z"/>
	<path class="st0" d="M148,163.5c0-6.7,4.5-11.3,10.8-11.3s10.6,4.7,10.6,11.3c0,6.5-4.1,11.3-10.8,11.3
		C152.3,174.8,148,170,148,163.5z"/>
	<path class="st0" d="M222,125.7c-12.8,0-14.6,7.7-14.6,13.3c0,4.9,0.7,9.7,1.4,14.6s1.4,9.9,1.4,14.8c0,18.2-11.3,24.7-26.1,24.7
		h-3.8v-9.9h3.1c10.1-0.2,14.4-5.6,14.4-15.7c0-4.3-0.7-8.5-1.3-13c-0.7-4.3-1.4-8.8-1.4-13.7c0-11.5,5-17.6,13-19.6v-0.4
		c-7.9-2.2-13-7.9-13-19.4c0-4.9,0.7-9.2,1.4-13.7c0.5-4.3,1.3-8.6,1.3-12.8c0-9.7-3.8-15.3-14.2-15.5h-3.2v-9.9h3.6
		c15.3,0,26.3,7,26.3,23.6c0,5-0.7,9.9-1.4,14.9c-0.7,5-1.4,10.1-1.4,15.1c0,6.3,1.8,13.3,14.6,13.3V125.7z"/>
</g>
</svg>
